<svg width="36" height="36" viewBox="0 0 740 740" fill="none" xmlns="http://www.w3.org/2000/svg">
    <path fill-rule="evenodd" clip-rule="evenodd" d="M565 661.039V660.961V386C565 289.35 466.65 191 370 191C273.35 191 175 289.35 175 386V661.014C174.993 667.911 169.399 673.5 162.5 673.5H62.5001C55.6101 673.5 50.0222 667.926 50.0002 661.041V660.959V648.5C50.0002 648.5 49.9998 482.019 50.0002 386C50.0002 220.315 204.315 66 370 66C535.686 66 690 220.315 690 386V661C690 667.904 684.404 673.5 677.5 673.5H577.5C570.61 673.5 565.021 667.925 565 661.039ZM590 648.5H665V386C665 234.122 521.878 91 370 91C218.122 91 75.0002 234.122 75.0002 386V648.5H150V386C150 275.543 259.543 166 370 166C480.457 166 590 275.543 590 386V648.5Z" fill="black"/>
    <path fill-rule="evenodd" clip-rule="evenodd" d="M240.728 405.539C306.403 412.746 357.5 468.406 357.5 536C357.5 544.271 356.735 552.363 355.272 560.21C289.597 553.004 238.5 497.344 238.5 429.75C238.5 421.479 239.265 413.386 240.728 405.539ZM382.5 585.487C385.606 585.236 388.686 584.895 391.738 584.465C467.621 573.777 526 508.581 526 429.75C526 421.38 525.342 413.163 524.075 405.15C522.697 396.44 520.6 387.97 517.847 379.802C516.485 379.767 515.12 379.75 513.75 379.75C506.287 379.75 498.946 380.273 491.762 381.285C469.791 384.379 449.288 392.043 431.244 403.284C444.579 343.491 423.907 276.607 370.264 239.145C316.43 276.792 295.874 343.847 309.364 403.665C291.044 392.134 270.162 384.303 247.764 381.219C240.732 380.25 233.549 379.75 226.25 379.75C224.711 379.75 223.177 379.772 221.649 379.816C218.893 387.992 216.796 396.471 215.419 405.19C214.156 413.191 213.5 421.394 213.5 429.75C213.5 508.745 272.122 574.048 348.236 584.531C351.296 584.952 354.385 585.285 357.5 585.527V661C357.5 667.903 363.097 673.5 370 673.5C376.904 673.5 382.5 667.903 382.5 661V585.487ZM382.5 536C382.5 468.574 433.343 413.023 498.782 405.594C500.239 413.424 501 421.498 501 429.75C501 497.176 450.157 552.727 384.718 560.156C383.262 552.326 382.5 544.252 382.5 536ZM370.264 271.218C319.912 318.035 316.109 397.397 357.5 449.491V343.5C357.5 336.596 363.097 331 370 331C376.904 331 382.5 336.596 382.5 343.5V450.207C424.868 397.849 420.331 317.941 370.264 271.218Z" fill="black"/>
</svg>
